<svg width="412" height="86" viewBox="0 0 412 86" fill="none" xmlns="http://www.w3.org/2000/svg">
<path d="M117.844 0C118.469 7.2584 121.348 13.4531 126.416 18.584C131.547 23.7149 137.742 26.4681 145 27.1564C129.107 29.6593 120.034 38.8575 117.718 54C115.341 38.8575 106.393 29.6593 91 27.2816C106.268 24.8412 115.278 15.7683 117.844 0Z" fill="#012161"/>
<path d="M86 86.5317C78.5573 87.1661 72.3131 89.9573 67.1411 95.1592C62.0321 100.298 59.1307 106.514 58.4369 114C55.7878 97.9504 46.6422 88.8789 31 86.4048C45.8222 85.1995 57.3016 73.0196 58.2477 59C60.8337 74.7958 69.9163 83.9942 86 86.5317Z" fill="#012161"/>
<path d="M58.7506 55C56.2563 39.1508 47.2148 30.1299 32 27.6868C47.0901 25.3063 56.1316 16.348 58.6882 1C61.1824 16.2854 70.224 25.2436 86 27.7494C78.5797 28.3759 72.4065 31.2575 67.2933 36.3944C62.1801 41.5313 59.4365 47.7332 58.7506 55Z" fill="#012161"/>
<path d="M203 27.781C188.858 28.7822 177.361 40.6709 176.377 55C174.041 39.2943 165.125 30.1587 150 27.7184C165.064 25.2781 173.979 16.1425 176.254 1C178.59 16.0174 187.383 25.2155 203 27.781Z" fill="#012161"/>
<path d="M176.186 59C176.807 66.1835 179.538 72.3761 184.628 77.5161C189.655 82.656 195.862 85.4427 203 86.2477C195.924 86.9908 189.841 89.7775 184.814 94.7317C179.786 99.7477 176.993 105.817 176.248 113C173.641 97.3945 164.641 88.539 149 86.1239C156.324 85.5046 162.531 82.656 167.683 77.5161C172.834 72.5 175.566 66.2454 176.186 59Z" fill="#012161"/>
<path d="M91 86.1893C105.128 85.1168 117.309 73.257 118.188 59C120.574 74.5187 129.616 83.729 145 86.2523C129.742 88.6495 120.763 97.7967 118.188 113C115.677 97.7336 106.635 88.6495 91 86.1893Z" fill="#012161"/>
<path d="M147.216 31C149.8 45.6555 158.623 54.5626 174 57.3421C166.753 58.1001 160.766 61.006 155.85 65.9964C150.872 70.9869 148.099 77.0513 147.342 84C144.696 68.8391 135.873 59.8689 121 57.2789C135.747 54.6889 144.633 45.7187 147.216 31Z" fill="#2E9ECD"/>
<path d="M114 57.0319C99.3206 59.7733 90.7368 68.8264 88.1244 84C87.5024 76.987 84.6411 70.8666 79.8517 65.8937C74.9378 60.7934 68.9665 57.8607 62 57.0319C68.8421 56.0118 74.8134 53.2704 79.6651 48.2338C84.5789 43.1972 87.378 37.0767 88.1244 30C90.6746 45.3011 99.445 54.2267 114 57.0319Z" fill="#2E9ECD"/>
<path d="M29.5 84C28.5827 71.9631 19.1655 59.17 4 57.2794C18.6763 54.5065 27.1151 45.6207 29.6223 31C32.0683 45.5577 40.5683 54.4435 55 57.2794C40.5072 59.9893 32.0683 69.0012 29.5 84Z" fill="#2E9ECD"/>
<path d="M27 86.5631C11.6163 88.8968 2.51163 98.1055 0 114C0 95.6456 0 77.3544 0 59C2.44884 74.8945 11.5535 84.1032 27 86.5631Z" fill="#012161"/>
<path d="M28 27.4369C11.7995 29.8968 2.61503 39.1055 0 55C0 36.5826 0 18.2913 0 0C0.829157 7.25344 3.63554 13.6239 8.92939 18.7959C14.1595 23.9679 20.5376 26.8062 28 27.4369Z" fill="#012161"/>
<path d="M294.219 0C293.593 7.26682 290.715 13.4687 285.647 18.6056C280.516 23.6798 274.258 26.4988 267 27.1253C282.893 29.6311 291.966 38.8399 294.282 54C296.659 38.8399 305.607 29.6311 321 27.2506C305.732 24.8074 296.722 15.7239 294.219 0Z" fill="#012161"/>
<path d="M326 86.0311C333.307 86.654 339.438 89.3945 344.516 94.5017C349.532 99.5467 352.381 105.651 353.062 113C355.663 97.2422 364.642 88.3356 380 85.9066C365.447 84.7232 354.177 72.7647 353.248 59C350.709 74.5086 341.791 83.6021 326 86.0311Z" fill="#012161"/>
<path d="M353.249 55C355.744 39.1324 364.785 30.101 380 27.6551C364.91 25.3345 355.868 16.3031 353.312 1C350.818 16.3031 341.776 25.2718 326 27.7805C333.42 28.4077 339.594 31.2927 344.707 36.4355C349.82 41.5157 352.626 47.7247 353.249 55Z" fill="#012161"/>
<path d="M208 27.781C222.408 28.7822 234.123 40.6709 235.125 55C237.506 39.2943 246.589 30.1587 262 27.7184C246.652 25.2781 237.568 16.1425 235.251 1C232.87 16.08 223.912 25.2155 208 27.781Z" fill="#012161"/>
<path d="M235.814 59C235.193 66.1835 232.462 72.3761 227.372 77.5161C222.345 82.656 216.138 85.4427 209 86.2477C216.076 86.9908 222.159 89.7775 227.186 94.7317C232.214 99.7477 235.007 105.817 235.752 113C238.359 97.3945 247.359 88.539 263 86.1238C255.676 85.5046 249.469 82.656 244.317 77.5161C239.166 72.5 236.434 66.2454 235.814 59Z" fill="#012161"/>
<path d="M321 86.1892C306.872 85.1168 294.691 73.257 293.812 59C291.426 74.5187 282.384 83.729 267 86.2523C282.258 88.6495 291.237 97.7967 293.812 113C296.26 97.7336 305.302 88.6495 321 86.1892Z" fill="#012161"/>
<path d="M264.289 31C261.656 45.6555 252.667 54.5626 237 57.3421C244.384 58.1001 250.484 61.006 255.492 65.9964C260.565 70.9869 263.39 77.0513 264.161 84C266.857 68.8391 275.847 59.8689 291 57.2789C275.975 54.6889 266.922 45.7819 264.289 31Z" fill="#2E9ECD"/>
<path d="M297 57.0319C311.98 59.7733 320.739 68.8264 323.405 84C324.04 76.987 326.959 70.8666 331.847 65.8937C336.798 60.8571 342.891 57.9244 350 57.0319C343.018 56.0118 336.925 53.2704 331.974 48.2338C326.959 43.1972 324.103 37.0767 323.341 30C320.739 45.3011 311.789 54.2267 297 57.0319Z" fill="#2E9ECD"/>
<path d="M382 84C382.935 71.736 392.537 58.7015 408 56.7753C393.098 53.9501 384.432 44.8323 381.875 30C379.381 44.8323 370.715 53.8858 356 56.7753C370.839 59.5363 379.381 68.7182 382 84Z" fill="#2E9ECD"/>
<path d="M385 86C400.384 88.3532 409.426 97.3326 412 113C412 94.9794 412 76.9587 412 59C409.488 74.5436 400.384 83.5849 385 86Z" fill="#012161"/>
<path d="M384 27.4369C400.2 29.8968 409.449 39.0424 412 55C412 36.6456 412 18.2913 412 0C411.171 7.25344 408.364 13.6239 403.071 18.7959C397.841 23.9679 391.462 26.8693 384 27.4369Z" fill="#012161"/>
<path d="M205.969 31.0791C208.916 45.3746 217.631 53.8387 231.989 56.3467C217.506 58.9174 208.853 67.5078 205.969 81.6152V81.6777C203.085 67.5703 194.432 58.9799 179.948 56.4092C194.306 53.8385 203.085 45.3743 205.969 31.1416V31.0791Z" fill="#2E9ECD"/>
</svg>
