<svg width="1080" height="68" viewBox="0 0 1080 68" fill="none" xmlns="http://www.w3.org/2000/svg">
<g clip-path="url(#clip0_10_1273)">
<path d="M1101.49 52.042C1098.46 54.5692 1095.68 57.4756 1092.52 60.0028C1081.15 69.3536 1066.61 69.1009 1055.62 59.4974C1052.59 56.8438 1049.68 54.0638 1046.65 51.5366C1036.41 43.323 1022.39 43.323 1012.15 51.4102C1008.99 53.9374 1006.09 56.7174 1003.18 59.371C991.933 69.2273 977.149 69.3536 965.776 59.8765C962.744 57.3492 959.964 54.4429 956.805 51.9156C946.569 43.5757 932.796 43.323 922.434 51.4102C919.149 53.9374 916.116 56.9701 912.831 59.6237C900.068 69.9854 885.41 69.3536 873.532 57.981C871.384 55.9592 869.236 53.9374 866.961 52.042C860.769 47.1139 853.819 44.9657 846.996 45.5975C841.815 46.2293 836.634 48.2511 832.085 52.042C829.052 54.5692 826.272 57.4756 823.113 60.0028C819.702 62.9092 815.911 64.8046 811.993 65.8155C807.571 67.3318 802.895 67.4582 798.22 65.9419C793.924 64.8046 789.88 62.6564 786.089 59.4974C785.71 59.1183 785.331 58.8656 784.952 58.4865C782.551 56.7174 780.15 54.822 777.876 52.9265C771.937 48.1248 765.492 45.4712 758.921 45.3448C753.109 45.4712 747.422 47.493 742.494 51.2838C739.335 53.8111 736.429 56.591 733.522 59.2446C722.276 69.1009 707.492 69.2273 696.119 59.7501C693.087 57.2229 690.307 54.3165 687.148 51.7893C676.912 43.4494 663.139 43.1966 652.777 51.2838C649.492 53.8111 646.459 56.8438 643.173 59.4974C630.411 69.8591 615.753 69.2273 603.875 57.8547C601.727 55.8329 599.578 53.8111 597.304 51.9156C585.931 42.9439 571.905 43.1966 560.785 52.5474C559.016 54.0638 557.247 55.5801 555.604 57.0965C554.593 57.981 553.583 58.8656 552.572 59.7501C552.445 59.8765 552.319 60.0028 552.193 60.0028C546.001 65.31 538.798 68.09 531.343 66.7C525.657 66.0682 520.097 63.6673 515.295 59.4974C512.262 56.8438 509.356 54.0638 506.323 51.5366C505.186 50.652 504.049 49.8938 502.911 49.262C496.34 45.5975 489.517 44.5866 482.82 46.103C478.902 46.9875 475.112 48.7566 471.826 51.4102C468.667 53.9374 465.761 56.7174 462.854 59.371C451.608 69.2273 436.824 69.3536 425.451 59.8765C422.419 57.3492 419.639 54.4429 416.48 51.9156C406.244 43.5757 392.471 43.323 382.109 51.4102C378.824 53.9374 375.791 56.9701 372.505 59.6237C359.743 69.9854 345.085 69.3536 333.207 57.981C331.059 55.9592 328.91 53.9374 326.636 52.042C320.444 47.1139 313.494 44.9657 306.671 45.5975C301.49 46.2293 296.309 48.2511 291.76 52.042C288.727 54.5692 285.947 57.4756 282.788 60.0028C279.376 62.9092 275.586 64.8046 271.668 65.8155C267.246 67.3318 262.57 67.4582 257.895 65.9419C253.599 64.8046 249.555 62.6564 245.764 59.4974C245.385 59.1183 245.006 58.8656 244.627 58.4865C242.226 56.7174 239.825 54.822 237.551 52.9265C231.612 48.1248 225.167 45.4712 218.596 45.3448C212.784 45.4712 207.097 47.493 202.169 51.2838C199.01 53.8111 196.104 56.591 193.197 59.2446C181.951 69.1009 167.167 69.2273 155.794 59.7501C152.761 57.2229 149.981 54.3165 146.822 51.7893C136.587 43.4494 122.814 43.1966 112.452 51.2838C109.166 53.8111 106.134 56.8438 102.848 59.4974C90.0858 69.8591 75.4277 69.2273 63.5497 57.8547C61.4015 55.8329 59.2534 53.8111 56.9788 51.9156C45.6062 42.9439 31.58 43.1966 20.4602 52.5474C17.5538 54.9483 14.7739 57.6019 11.8675 60.0028C4.66487 66.1946 -4.05413 68.9745 -12.7731 65.5628C-19.723 62.7828 -26.0412 57.7283 -31.9802 52.9265C-39.941 46.3557 -48.9127 44.0812 -57.5054 46.103V-32.9998H211.899H306.923H483.072H576.328H752.477H846.996H1116.4V45.5975C1111.22 46.103 1106.16 48.2511 1101.49 52.042Z" fill="#012161"/>
</g>
<g clip-path="url(#clip1_10_1273)">
<path d="M1111.49 52.042C1108.46 54.5692 1105.68 57.4756 1102.52 60.0028C1091.15 69.3536 1076.61 69.1009 1065.62 59.4974C1062.59 56.8438 1059.68 54.0638 1056.65 51.5366C1046.41 43.323 1032.39 43.323 1022.15 51.4102C1018.99 53.9374 1016.09 56.7174 1013.18 59.371C1001.93 69.2273 987.149 69.3536 975.776 59.8765C972.744 57.3492 969.964 54.4429 966.805 51.9156C956.569 43.5757 942.796 43.323 932.434 51.4102C929.149 53.9374 926.116 56.9701 922.831 59.6237C910.068 69.9854 895.41 69.3536 883.532 57.981C881.384 55.9592 879.236 53.9374 876.961 52.042C870.769 47.1139 863.819 44.9657 856.996 45.5975C851.815 46.2293 846.634 48.2511 842.085 52.042C839.052 54.5692 836.272 57.4756 833.113 60.0028C829.702 62.9092 825.911 64.8046 821.993 65.8155C817.571 67.3318 812.895 67.4582 808.22 65.9419C803.924 64.8046 799.88 62.6564 796.089 59.4974C795.71 59.1183 795.331 58.8656 794.952 58.4865C792.551 56.7174 790.15 54.822 787.876 52.9265C781.937 48.1248 775.492 45.4712 768.921 45.3448C763.109 45.4712 757.422 47.493 752.494 51.2838C749.335 53.8111 746.429 56.591 743.522 59.2446C732.276 69.1009 717.492 69.2273 706.119 59.7501C703.087 57.2229 700.307 54.3165 697.148 51.7893C686.912 43.4494 673.139 43.1966 662.777 51.2838C659.492 53.8111 656.459 56.8438 653.173 59.4974C640.411 69.8591 625.753 69.2273 613.875 57.8547C611.727 55.8329 609.578 53.8111 607.304 51.9156C595.931 42.9439 581.905 43.1966 570.785 52.5474C569.016 54.0638 567.247 55.5801 565.604 57.0965C564.593 57.981 563.583 58.8656 562.572 59.7501C562.445 59.8765 562.319 60.0028 562.193 60.0028C556.001 65.31 548.798 68.09 541.343 66.7C535.657 66.0682 530.097 63.6673 525.295 59.4974C522.262 56.8438 519.356 54.0638 516.323 51.5366C515.186 50.652 514.049 49.8938 512.911 49.262C506.34 45.5975 499.517 44.5866 492.82 46.103C488.902 46.9875 485.112 48.7566 481.826 51.4102C478.667 53.9374 475.761 56.7174 472.854 59.371C461.608 69.2273 446.824 69.3536 435.451 59.8765C432.419 57.3492 429.639 54.4429 426.48 51.9156C416.244 43.5757 402.471 43.323 392.109 51.4102C388.824 53.9374 385.791 56.9701 382.505 59.6237C369.743 69.9854 355.085 69.3536 343.207 57.981C341.059 55.9592 338.91 53.9374 336.636 52.042C330.444 47.1139 323.494 44.9657 316.671 45.5975C311.49 46.2293 306.309 48.2511 301.76 52.042C298.727 54.5692 295.947 57.4756 292.788 60.0028C289.376 62.9092 285.586 64.8046 281.668 65.8155C277.246 67.3318 272.57 67.4582 267.895 65.9419C263.599 64.8046 259.555 62.6564 255.764 59.4974C255.385 59.1183 255.006 58.8656 254.627 58.4865C252.226 56.7174 249.825 54.822 247.551 52.9265C241.612 48.1248 235.167 45.4712 228.596 45.3448C222.784 45.4712 217.097 47.493 212.169 51.2838C209.01 53.8111 206.104 56.591 203.197 59.2446C191.951 69.1009 177.167 69.2273 165.794 59.7501C162.761 57.2229 159.981 54.3165 156.822 51.7893C146.587 43.4494 132.814 43.1966 122.452 51.2838C119.166 53.8111 116.134 56.8438 112.848 59.4974C100.086 69.8591 85.4277 69.2273 73.5497 57.8547C71.4015 55.8329 69.2534 53.8111 66.9788 51.9156C55.6062 42.9439 41.58 43.1966 30.4602 52.5474C27.5538 54.9483 24.7739 57.6019 21.8675 60.0028C14.6649 66.1946 5.94587 68.9745 -2.77312 65.5628C-9.72305 62.7828 -16.0412 57.7283 -21.9802 52.9265C-29.941 46.3557 -38.9127 44.0812 -47.5054 46.103V-32.9998H221.899H316.923H493.072H586.328H762.477H856.996H1126.4V45.5975C1121.22 46.103 1116.16 48.2511 1111.49 52.042Z" fill="#146BB6"/>
</g>
<defs>
<clipPath id="clip0_10_1273">
<rect width="1173.4" height="100.079" fill="white" transform="matrix(1 0 0 -1 -57 67.0791)"/>
</clipPath>
<clipPath id="clip1_10_1273">
<rect width="1173.4" height="100.079" fill="white" transform="matrix(1 0 0 -1 -47 67.0791)"/>
</clipPath>
</defs>
</svg>
