<svg width="67" height="94" viewBox="0 0 67 94" fill="none" xmlns="http://www.w3.org/2000/svg">
<rect y="13.0518" width="67" height="67.8701" rx="33.5" fill="white"/>
<path d="M33.2308 69.377C34.0711 72.0337 35.3749 74.2674 37.1526 76.043C38.9082 77.7964 41.0962 79.0725 43.6829 79.8818C41.0679 80.7104 38.8613 82.0086 37.096 83.8027C35.3725 85.5544 34.1002 87.7483 33.2669 90.3672C32.5214 87.9258 31.2117 85.7519 29.3167 83.8691C27.4119 81.9544 25.2286 80.6171 22.7454 79.8604C25.3469 79.0281 27.531 77.7616 29.2786 76.043C31.0879 74.2637 32.3964 72.0323 33.2308 69.377Z" fill="white" stroke="#02534C" stroke-width="1.5"/>
<path d="M34.971 3.24707C35.8114 5.90381 37.1152 8.13748 38.8929 9.91309C40.6484 11.6665 42.8364 12.9426 45.4232 13.752C42.8082 14.5805 40.6015 15.8788 38.8362 17.6729C37.1127 19.4245 35.8405 21.6184 35.0071 24.2373C34.2616 21.7959 32.952 19.6221 31.0569 17.7393C29.1521 15.8245 26.9688 14.4872 24.4857 13.7305C27.0871 12.8982 29.2712 11.6317 31.0189 9.91309C32.8282 8.13378 34.1367 5.90237 34.971 3.24707Z" fill="white" stroke="#02534C" stroke-width="1.5"/>
</svg>
