<svg width="407" height="96" viewBox="0 0 407 96" fill="none" xmlns="http://www.w3.org/2000/svg">
<path d="M104.573 86.36C96.7329 83.14 84.6929 80.83 72.0229 80.83C68.2429 80.83 64.4629 81.04 60.6829 81.46C37.8629 84.19 25.6129 93.5 28.8329 95.81C27.3629 95.81 23.8629 93.36 23.5129 90.28C23.1629 86.57 31.2829 82.93 40.4529 80.55C46.4729 76.35 53.8929 67.81 59.8429 60.88C57.0429 61.23 54.3129 61.44 51.5829 61.44C39.5429 61.44 29.7429 56.54 28.9729 50.17C28.8329 49.26 29.6729 47.51 30.6529 46.32C32.6829 43.94 35.9729 43.8 36.4629 44.08C35.2029 44.5 33.7329 45.69 33.6629 46.95C33.4529 51.71 41.7829 58.29 54.7329 58.29C55.9929 58.29 57.3229 58.22 58.7229 58.08C59.9829 57.94 61.1729 57.8 62.4329 57.59C76.1529 40.37 90.9229 17.9 103.453 17.62C107.443 17.55 110.593 20 110.033 24.48C108.773 36.52 89.9429 52.97 68.1729 59.06C61.5229 66.97 53.6829 75.16 48.0129 78.94C51.5129 78.31 55.0129 77.89 58.0229 77.75C59.6329 77.68 61.2429 77.61 62.9929 77.61C78.1829 77.61 97.7829 80.9 104.573 86.36ZM103.173 19.58C97.4329 21.33 84.6929 39.18 71.2529 55.35C93.7929 47.79 106.883 28.05 106.253 22.1C106.043 20.28 104.993 19.02 103.173 19.58ZM95.433 66.55C94.173 68.02 92.843 70.26 92.633 72.08C92.563 72.92 93.193 73.41 94.733 73.41C99.843 73.41 112.653 63.68 119.723 57.8C119.933 57.66 120.423 58.01 120.213 58.22C114.963 63.12 101.033 76.49 91.723 76.49C89.553 76.49 86.753 73.97 86.753 72.08C86.753 70.4 87.173 69 87.733 67.46C89.413 63.47 92.983 59.06 97.393 55.35C103.203 50.52 109.433 48.35 112.443 48.35C113.493 48.35 116.713 49.96 116.713 51.92C116.713 56.26 103.273 66.34 95.433 66.55ZM114.473 50.45C106.703 52.97 98.653 61.44 96.343 65.15C102.433 64.45 114.053 53.11 114.473 50.45ZM128.522 70.19C129.362 67.6 131.252 64.38 132.582 62.63C130.482 64.73 116.832 76.49 113.892 76.49C113.752 76.49 113.402 76.35 113.262 76.28C112.002 75.65 110.182 72.99 110.182 71.59C110.182 63.96 126.212 48.35 139.092 48.35C141.752 48.35 145.252 49.47 145.252 52.76C145.252 53.95 144.622 55.14 143.922 56.05C143.782 56.12 143.642 56.05 143.712 55.98C144.062 55.35 144.482 54.51 144.482 53.46C144.482 51.36 143.152 50.31 141.052 50.45C136.992 50.66 131.882 53.6 127.332 57.45C120.682 63.12 115.432 71.94 116.062 72.29C116.202 72.36 116.342 72.36 116.552 72.29C118.862 71.52 128.662 64.45 132.302 61.37C133.562 60.25 138.112 55.84 139.862 54.86C141.262 54.16 143.642 58.01 143.362 58.85C143.012 58.15 136.712 65.78 134.612 70.26C134.192 71.24 133.912 72.08 133.912 72.64C138.322 71.38 148.332 61.79 152.672 57.73C153.022 57.38 153.372 57.94 153.162 58.15C147.072 64.8 135.662 76.49 131.462 76.49C131.112 76.49 130.762 76.35 130.272 76.07C129.292 75.51 127.962 74.04 127.962 72.78C127.962 72.08 128.242 71.24 128.522 70.19ZM170.788 48.35C172.118 48.35 173.238 48.84 173.868 49.54C178.208 42.82 182.548 37.01 185.978 32.32C188.148 29.59 190.108 27.35 191.788 25.95C192.838 25.11 193.748 24.55 194.378 24.55C198.298 24.34 201.098 28.4 199.838 27.63C197.458 26.51 192.768 33.09 189.828 36.87C186.748 40.72 183.878 44.85 180.448 49.96C174.288 59.2 168.688 68.44 166.938 72.85C170.648 72.57 182.968 60.6 186.048 57.73C186.468 57.38 186.818 57.94 186.608 58.15C183.248 61.93 170.718 75.09 166.728 76.35C165.888 76.63 165.118 76.42 164.418 76.07C163.298 75.44 161.758 73.97 161.758 72.43C161.758 71.03 163.298 67.39 166.728 61.09C164.278 63.05 149.858 76.49 146.218 76.49C144.958 76.49 142.718 73.34 142.718 71.73C142.718 67.95 149.018 58.99 156.438 54.16C161.828 50.59 166.588 48.35 170.788 48.35ZM168.688 57.87L173.238 50.52C172.328 50.24 171.278 50.24 170.298 50.52C167.358 51.29 162.738 54.86 158.888 58.64C152.588 64.59 147.898 71.94 148.458 72.29C149.298 72.78 160.498 65.01 168.688 57.87ZM185.736 66.55C184.476 68.02 183.146 70.26 182.936 72.08C182.866 72.92 183.496 73.41 185.036 73.41C190.146 73.41 202.956 63.68 210.026 57.8C210.236 57.66 210.726 58.01 210.516 58.22C205.266 63.12 191.336 76.49 182.026 76.49C179.856 76.49 177.056 73.97 177.056 72.08C177.056 70.4 177.476 69 178.036 67.46C179.716 63.47 183.286 59.06 187.696 55.35C193.506 50.52 199.736 48.35 202.746 48.35C203.796 48.35 207.016 49.96 207.016 51.92C207.016 56.26 193.576 66.34 185.736 66.55ZM204.776 50.45C197.006 52.97 188.956 61.44 186.646 65.15C192.736 64.45 204.356 53.11 204.776 50.45ZM209.655 57.38C212.105 53.81 215.115 50.24 216.865 48.84C217.285 48.56 217.565 48.49 217.845 48.49C219.525 48.49 222.185 51.22 222.185 52.97C222.185 53.25 221.975 52.9 221.415 52.83C220.365 52.76 217.915 55.49 215.815 58.29C213.925 60.81 211.475 64.1 210.005 66.69C213.715 61.86 220.715 55.98 226.735 51.64C229.465 49.68 231.565 48.49 233.035 48.35C233.805 48.28 236.675 51.29 236.185 51.85C234.645 53.46 228.835 58.57 226.525 64.03C229.885 63.75 234.715 60.6 239.055 56.75C239.125 56.68 239.545 56.61 239.615 56.75C238.355 58.43 229.955 66.27 225.125 66.27C223.865 66.27 221.765 63.82 221.765 62.98C221.765 61.02 224.005 56.96 225.825 54.86C219.385 58.64 216.095 61.44 211.335 66.69C207.765 70.54 203.565 76.7 205.105 77.4C203.075 77.89 201.395 75.72 200.905 73.76C200.765 73.13 201.115 71.8 201.955 70.19C203.705 66.2 206.855 61.37 209.655 57.38ZM259.301 35.47C252.371 44.15 245.581 53.25 240.191 63.61C245.651 56.89 257.971 47.37 261.751 48.7C262.591 49.05 265.041 51.71 265.041 52.69C265.041 58.99 251.461 76 241.801 76C239.071 76 235.991 74.18 235.991 71.87C235.991 71.52 236.271 71.38 236.271 71.59C236.271 72.29 237.531 73.62 238.931 73.62C246.001 73.62 258.741 55 259.371 51.5C258.181 51.43 244.181 58.78 236.901 69.49C234.871 72.43 232.001 76.49 235.151 76.84C234.311 77.19 233.611 76.91 232.911 76.49C232.281 76.28 230.881 74.81 230.391 73.69C230.181 73.13 230.321 71.03 232.351 66.41C236.271 57.66 244.951 44.92 252.161 35.33C254.611 32.04 257.341 28.68 260.631 25.95C261.751 25.18 262.661 24.69 263.291 24.69C267.211 24.69 269.941 28.82 268.611 28.05C266.721 27.07 263.571 30.15 259.301 35.47ZM290.652 49.75C289.952 49.68 289.392 49.54 288.902 49.54C276.232 49.54 261.602 73.13 265.522 74.81C269.442 76.42 279.452 65.22 284.142 58.08C283.792 57.45 283.092 55.35 283.372 54.65C283.582 53.95 285.682 51.85 286.592 51.78C287.292 51.71 288.062 52.27 288.202 52.48C289.532 54.65 291.212 56.26 294.012 56.05C298.702 55.63 301.292 52.9 302.062 52.97C301.712 53.95 298.912 56.26 295.482 57.38C293.942 57.87 292.472 58.01 291.352 58.01C290.302 58.01 289.602 57.87 289.252 57.73C287.362 67.04 272.872 77.12 265.452 76.7C262.232 76.49 260.132 73.83 260.132 71.17C260.132 59.76 275.462 48.35 286.522 48.35C289.182 48.35 290.302 49.12 290.792 49.54C291.142 49.75 290.932 49.75 290.652 49.75ZM304.958 70.19C305.798 67.6 307.688 64.38 309.018 62.63C306.918 64.73 293.268 76.49 290.328 76.49C290.188 76.49 289.838 76.35 289.698 76.28C288.438 75.65 286.618 72.99 286.618 71.59C286.618 63.96 302.648 48.35 315.528 48.35C318.188 48.35 321.688 49.47 321.688 52.76C321.688 53.95 321.058 55.14 320.358 56.05C320.218 56.12 320.078 56.05 320.148 55.98C320.498 55.35 320.918 54.51 320.918 53.46C320.918 51.36 319.588 50.31 317.488 50.45C313.428 50.66 308.318 53.6 303.768 57.45C297.118 63.12 291.868 71.94 292.498 72.29C292.638 72.36 292.778 72.36 292.988 72.29C295.298 71.52 305.098 64.45 308.738 61.37C309.998 60.25 314.548 55.84 316.298 54.86C317.698 54.16 320.078 58.01 319.798 58.85C319.448 58.15 313.148 65.78 311.048 70.26C310.628 71.24 310.348 72.08 310.348 72.64C314.758 71.38 324.768 61.79 329.108 57.73C329.458 57.38 329.808 57.94 329.598 58.15C323.508 64.8 312.098 76.49 307.898 76.49C307.548 76.49 307.198 76.35 306.708 76.07C305.728 75.51 304.398 74.04 304.398 72.78C304.398 72.08 304.678 71.24 304.958 70.19ZM328.464 57.38C330.914 53.81 333.924 50.24 335.674 48.84C336.094 48.56 336.374 48.49 336.654 48.49C338.334 48.49 340.994 51.22 340.994 52.97C340.994 53.25 340.784 52.9 340.224 52.83C339.174 52.76 336.724 55.49 334.624 58.29C332.734 60.81 330.284 64.1 328.814 66.69C332.524 61.86 339.524 55.98 345.544 51.64C348.274 49.68 350.374 48.49 351.844 48.35C352.614 48.28 355.484 51.29 354.994 51.85C353.454 53.46 347.644 58.57 345.334 64.03C348.694 63.75 353.524 60.6 357.864 56.75C357.934 56.68 358.354 56.61 358.424 56.75C357.164 58.43 348.764 66.27 343.934 66.27C342.674 66.27 340.574 63.82 340.574 62.98C340.574 61.02 342.814 56.96 344.634 54.86C338.194 58.64 334.904 61.44 330.144 66.69C326.574 70.54 322.374 76.7 323.914 77.4C321.884 77.89 320.204 75.72 319.714 73.76C319.574 73.13 319.924 71.8 320.764 70.19C322.514 66.2 325.664 61.37 328.464 57.38ZM375.729 48.35C377.059 48.35 378.179 48.84 378.809 49.54C383.149 42.82 387.489 37.01 390.919 32.32C393.089 29.59 395.049 27.35 396.729 25.95C397.779 25.11 398.689 24.55 399.319 24.55C403.239 24.34 406.039 28.4 404.779 27.63C402.399 26.51 397.709 33.09 394.769 36.87C391.689 40.72 388.819 44.85 385.389 49.96C379.229 59.2 373.629 68.44 371.879 72.85C375.589 72.57 387.909 60.6 390.989 57.73C391.409 57.38 391.759 57.94 391.549 58.15C388.189 61.93 375.659 75.09 371.669 76.35C370.829 76.63 370.059 76.42 369.359 76.07C368.239 75.44 366.699 73.97 366.699 72.43C366.699 71.03 368.239 67.39 371.669 61.09C369.219 63.05 354.799 76.49 351.159 76.49C349.899 76.49 347.659 73.34 347.659 71.73C347.659 67.95 353.959 58.99 361.379 54.16C366.769 50.59 371.529 48.35 375.729 48.35ZM373.629 57.87L378.179 50.52C377.269 50.24 376.219 50.24 375.239 50.52C372.299 51.29 367.679 54.86 363.829 58.64C357.529 64.59 352.839 71.94 353.399 72.29C354.239 72.78 365.439 65.01 373.629 57.87Z" fill="#2E769F"/>
</svg>
