<svg width="104" height="862" viewBox="0 0 104 862" fill="none" xmlns="http://www.w3.org/2000/svg">
<path d="M18.2031 129.853L-10.7701 79.6649L-39.7744 129.853H18.2031Z" fill="url(#paint0_linear_513_718)"/>
<path d="M103.652 129.853L74.6791 79.6649L45.6671 129.853H103.652Z" fill="url(#paint1_linear_513_718)"/>
<path d="M103.652 146.03L74.6791 196.21L45.6671 146.03H103.652Z" fill="url(#paint2_linear_513_718)"/>
<path d="M18.1182 -1.99998L-10.855 48.1804L-39.8593 -1.99998H18.1182Z" fill="url(#paint3_linear_513_718)"/>
<path d="M103.652 -1.99998L74.6714 48.1804L45.6671 -1.99998H103.652Z" fill="url(#paint4_linear_513_718)"/>
<path d="M18.1875 277.883L-10.7857 227.695L-39.79 277.883H18.1875Z" fill="url(#paint5_linear_513_718)"/>
<path d="M18.1875 146.03L-10.7857 196.21L-39.79 146.03H18.1875Z" fill="url(#paint6_linear_513_718)"/>
<path d="M18.1875 425.905L-10.7857 375.725L-39.79 425.905H18.1875Z" fill="url(#paint7_linear_513_718)"/>
<path d="M18.1875 294.053L-10.7857 344.241L-39.79 294.053H18.1875Z" fill="url(#paint8_linear_513_718)"/>
<path d="M103.646 277.883L74.6723 227.695L45.668 277.883H103.646Z" fill="url(#paint9_linear_513_718)"/>
<path d="M103.646 294.053L74.6723 344.241L45.668 294.053H103.646Z" fill="url(#paint10_linear_513_718)"/>
<path d="M18.1875 573.935L-10.7857 523.747L-39.79 573.935H18.1875Z" fill="url(#paint11_linear_513_718)"/>
<path d="M18.1875 442.082L-10.7857 492.262L-39.79 442.082H18.1875Z" fill="url(#paint12_linear_513_718)"/>
<path d="M18.1875 721.958L-10.7857 671.777L-39.79 721.958H18.1875Z" fill="url(#paint13_linear_513_718)"/>
<path d="M18.1875 590.105L-10.7857 640.293L-39.79 590.105H18.1875Z" fill="url(#paint14_linear_513_718)"/>
<path d="M18.1875 869.987L-10.7857 819.799L-39.79 869.987H18.1875Z" fill="url(#paint15_linear_513_718)"/>
<path d="M18.1875 738.135L-10.7857 788.323L-39.79 738.135H18.1875Z" fill="url(#paint16_linear_513_718)"/>
<path d="M103.7 425.905L74.7192 375.725L45.7149 425.905H103.7Z" fill="url(#paint17_linear_513_718)"/>
<path d="M103.7 573.935L74.7192 523.747L45.7149 573.935H103.7Z" fill="url(#paint18_linear_513_718)"/>
<path d="M103.7 442.082L74.7192 492.262L45.7149 442.082H103.7Z" fill="url(#paint19_linear_513_718)"/>
<path d="M103.7 721.958L74.7192 671.777L45.7149 721.958H103.7Z" fill="url(#paint20_linear_513_718)"/>
<path d="M103.7 590.105L74.7192 640.293L45.7149 590.105H103.7Z" fill="url(#paint21_linear_513_718)"/>
<path d="M103.7 869.987L74.7192 819.799L45.7149 869.987H103.7Z" fill="url(#paint22_linear_513_718)"/>
<path d="M103.7 738.135L74.7192 788.323L45.7149 738.135H103.7Z" fill="url(#paint23_linear_513_718)"/>
<path d="M61.084 203.868L32.103 153.68L3.09872 203.868H61.084Z" fill="url(#paint24_linear_513_718)"/>
<path d="M61.084 220.038L32.103 270.226L3.09872 220.038H61.084Z" fill="url(#paint25_linear_513_718)"/>
<path d="M61.084 351.89L32.103 301.71L3.09872 351.89H61.084Z" fill="url(#paint26_linear_513_718)"/>
<path d="M61.084 368.067L32.103 418.248L3.09872 368.067H61.084Z" fill="url(#paint27_linear_513_718)"/>
<path d="M61.084 499.92L32.103 449.732L3.09872 499.92H61.084Z" fill="url(#paint28_linear_513_718)"/>
<path d="M61.084 516.098L32.103 566.278L3.09872 516.098H61.084Z" fill="url(#paint29_linear_513_718)"/>
<path d="M61.084 647.942L32.103 597.762L3.09872 647.942H61.084Z" fill="url(#paint30_linear_513_718)"/>
<path d="M61.084 664.12L32.103 714.308L3.09872 664.12H61.084Z" fill="url(#paint31_linear_513_718)"/>
<path d="M61.084 795.972L32.103 745.792L3.09872 795.972H61.084Z" fill="url(#paint32_linear_513_718)"/>
<path d="M61.084 812.149L32.103 862.33L3.09872 812.149H61.084Z" fill="url(#paint33_linear_513_718)"/>
<path d="M60.8896 55.8381L31.9087 5.65789L2.90439 55.8381H60.8896Z" fill="url(#paint34_linear_513_718)"/>
<path d="M60.9287 72.0158L31.9555 122.196L2.94345 72.0158H60.9287Z" fill="url(#paint35_linear_513_718)"/>
<defs>
<linearGradient id="paint0_linear_513_718" x1="-10.7856" y1="79.6649" x2="-10.7856" y2="129.853" gradientUnits="userSpaceOnUse">
<stop stop-color="#3592BA"/>
<stop offset="1" stop-color="#00A99D"/>
</linearGradient>
<linearGradient id="paint1_linear_513_718" x1="74.6597" y1="79.6649" x2="74.6597" y2="129.853" gradientUnits="userSpaceOnUse">
<stop stop-color="#3592BA"/>
<stop offset="1" stop-color="#00A99D"/>
</linearGradient>
<linearGradient id="paint2_linear_513_718" x1="74.6597" y1="146.03" x2="74.6597" y2="196.21" gradientUnits="userSpaceOnUse">
<stop stop-color="#3592BA"/>
<stop offset="1" stop-color="#00A99D"/>
</linearGradient>
<linearGradient id="paint3_linear_513_718" x1="-10.8706" y1="-1.99998" x2="-10.8706" y2="48.1804" gradientUnits="userSpaceOnUse">
<stop stop-color="#3592BA"/>
<stop offset="1" stop-color="#00A99D"/>
</linearGradient>
<linearGradient id="paint4_linear_513_718" x1="74.6597" y1="-1.99998" x2="74.6597" y2="48.1804" gradientUnits="userSpaceOnUse">
<stop stop-color="#3592BA"/>
<stop offset="1" stop-color="#00A99D"/>
</linearGradient>
<linearGradient id="paint5_linear_513_718" x1="-10.8013" y1="227.695" x2="-10.8013" y2="277.883" gradientUnits="userSpaceOnUse">
<stop stop-color="#3592BA"/>
<stop offset="1" stop-color="#00A99D"/>
</linearGradient>
<linearGradient id="paint6_linear_513_718" x1="-10.8013" y1="146.03" x2="-10.8013" y2="196.21" gradientUnits="userSpaceOnUse">
<stop stop-color="#3592BA"/>
<stop offset="1" stop-color="#00A99D"/>
</linearGradient>
<linearGradient id="paint7_linear_513_718" x1="-10.8013" y1="375.725" x2="-10.8013" y2="425.905" gradientUnits="userSpaceOnUse">
<stop stop-color="#3592BA"/>
<stop offset="1" stop-color="#00A99D"/>
</linearGradient>
<linearGradient id="paint8_linear_513_718" x1="-10.8013" y1="294.053" x2="-10.8013" y2="344.241" gradientUnits="userSpaceOnUse">
<stop stop-color="#3592BA"/>
<stop offset="1" stop-color="#00A99D"/>
</linearGradient>
<linearGradient id="paint9_linear_513_718" x1="74.6568" y1="227.695" x2="74.6568" y2="277.883" gradientUnits="userSpaceOnUse">
<stop stop-color="#3592BA"/>
<stop offset="1" stop-color="#00A99D"/>
</linearGradient>
<linearGradient id="paint10_linear_513_718" x1="74.6568" y1="294.053" x2="74.6568" y2="344.241" gradientUnits="userSpaceOnUse">
<stop stop-color="#3592BA"/>
<stop offset="1" stop-color="#00A99D"/>
</linearGradient>
<linearGradient id="paint11_linear_513_718" x1="-10.8013" y1="523.747" x2="-10.8013" y2="573.935" gradientUnits="userSpaceOnUse">
<stop stop-color="#3592BA"/>
<stop offset="1" stop-color="#00A99D"/>
</linearGradient>
<linearGradient id="paint12_linear_513_718" x1="-10.8013" y1="442.082" x2="-10.8013" y2="492.262" gradientUnits="userSpaceOnUse">
<stop stop-color="#3592BA"/>
<stop offset="1" stop-color="#00A99D"/>
</linearGradient>
<linearGradient id="paint13_linear_513_718" x1="-10.8013" y1="671.777" x2="-10.8013" y2="721.958" gradientUnits="userSpaceOnUse">
<stop stop-color="#3592BA"/>
<stop offset="1" stop-color="#00A99D"/>
</linearGradient>
<linearGradient id="paint14_linear_513_718" x1="-10.8013" y1="590.105" x2="-10.8013" y2="640.293" gradientUnits="userSpaceOnUse">
<stop stop-color="#3592BA"/>
<stop offset="1" stop-color="#00A99D"/>
</linearGradient>
<linearGradient id="paint15_linear_513_718" x1="-10.8013" y1="819.799" x2="-10.8013" y2="869.987" gradientUnits="userSpaceOnUse">
<stop stop-color="#3592BA"/>
<stop offset="1" stop-color="#00A99D"/>
</linearGradient>
<linearGradient id="paint16_linear_513_718" x1="-10.8013" y1="738.135" x2="-10.8013" y2="788.323" gradientUnits="userSpaceOnUse">
<stop stop-color="#3592BA"/>
<stop offset="1" stop-color="#00A99D"/>
</linearGradient>
<linearGradient id="paint17_linear_513_718" x1="74.7076" y1="375.725" x2="74.7076" y2="425.905" gradientUnits="userSpaceOnUse">
<stop stop-color="#3592BA"/>
<stop offset="1" stop-color="#00A99D"/>
</linearGradient>
<linearGradient id="paint18_linear_513_718" x1="74.7076" y1="523.747" x2="74.7076" y2="573.935" gradientUnits="userSpaceOnUse">
<stop stop-color="#3592BA"/>
<stop offset="1" stop-color="#00A99D"/>
</linearGradient>
<linearGradient id="paint19_linear_513_718" x1="74.7076" y1="442.082" x2="74.7076" y2="492.262" gradientUnits="userSpaceOnUse">
<stop stop-color="#3592BA"/>
<stop offset="1" stop-color="#00A99D"/>
</linearGradient>
<linearGradient id="paint20_linear_513_718" x1="74.7076" y1="671.777" x2="74.7076" y2="721.958" gradientUnits="userSpaceOnUse">
<stop stop-color="#3592BA"/>
<stop offset="1" stop-color="#00A99D"/>
</linearGradient>
<linearGradient id="paint21_linear_513_718" x1="74.7076" y1="590.105" x2="74.7076" y2="640.293" gradientUnits="userSpaceOnUse">
<stop stop-color="#3592BA"/>
<stop offset="1" stop-color="#00A99D"/>
</linearGradient>
<linearGradient id="paint22_linear_513_718" x1="74.7076" y1="819.799" x2="74.7076" y2="869.987" gradientUnits="userSpaceOnUse">
<stop stop-color="#3592BA"/>
<stop offset="1" stop-color="#00A99D"/>
</linearGradient>
<linearGradient id="paint23_linear_513_718" x1="74.7076" y1="738.135" x2="74.7076" y2="788.323" gradientUnits="userSpaceOnUse">
<stop stop-color="#3592BA"/>
<stop offset="1" stop-color="#00A99D"/>
</linearGradient>
<linearGradient id="paint24_linear_513_718" x1="32.0914" y1="153.68" x2="32.0914" y2="203.868" gradientUnits="userSpaceOnUse">
<stop stop-color="#3592BA"/>
<stop offset="1" stop-color="#00A99D"/>
</linearGradient>
<linearGradient id="paint25_linear_513_718" x1="32.0914" y1="220.038" x2="32.0914" y2="270.226" gradientUnits="userSpaceOnUse">
<stop stop-color="#3592BA"/>
<stop offset="1" stop-color="#00A99D"/>
</linearGradient>
<linearGradient id="paint26_linear_513_718" x1="32.0914" y1="301.71" x2="32.0914" y2="351.89" gradientUnits="userSpaceOnUse">
<stop stop-color="#3592BA"/>
<stop offset="1" stop-color="#00A99D"/>
</linearGradient>
<linearGradient id="paint27_linear_513_718" x1="32.0914" y1="368.067" x2="32.0914" y2="418.248" gradientUnits="userSpaceOnUse">
<stop stop-color="#3592BA"/>
<stop offset="1" stop-color="#00A99D"/>
</linearGradient>
<linearGradient id="paint28_linear_513_718" x1="32.0914" y1="449.732" x2="32.0914" y2="499.92" gradientUnits="userSpaceOnUse">
<stop stop-color="#3592BA"/>
<stop offset="1" stop-color="#00A99D"/>
</linearGradient>
<linearGradient id="paint29_linear_513_718" x1="32.0914" y1="516.098" x2="32.0914" y2="566.278" gradientUnits="userSpaceOnUse">
<stop stop-color="#3592BA"/>
<stop offset="1" stop-color="#00A99D"/>
</linearGradient>
<linearGradient id="paint30_linear_513_718" x1="32.0914" y1="597.762" x2="32.0914" y2="647.942" gradientUnits="userSpaceOnUse">
<stop stop-color="#3592BA"/>
<stop offset="1" stop-color="#00A99D"/>
</linearGradient>
<linearGradient id="paint31_linear_513_718" x1="32.0914" y1="664.12" x2="32.0914" y2="714.308" gradientUnits="userSpaceOnUse">
<stop stop-color="#3592BA"/>
<stop offset="1" stop-color="#00A99D"/>
</linearGradient>
<linearGradient id="paint32_linear_513_718" x1="32.0914" y1="745.792" x2="32.0914" y2="795.972" gradientUnits="userSpaceOnUse">
<stop stop-color="#3592BA"/>
<stop offset="1" stop-color="#00A99D"/>
</linearGradient>
<linearGradient id="paint33_linear_513_718" x1="32.0914" y1="812.149" x2="32.0914" y2="862.33" gradientUnits="userSpaceOnUse">
<stop stop-color="#3592BA"/>
<stop offset="1" stop-color="#00A99D"/>
</linearGradient>
<linearGradient id="paint34_linear_513_718" x1="31.897" y1="5.65789" x2="31.897" y2="55.8381" gradientUnits="userSpaceOnUse">
<stop stop-color="#3592BA"/>
<stop offset="1" stop-color="#00A99D"/>
</linearGradient>
<linearGradient id="paint35_linear_513_718" x1="31.9361" y1="72.0158" x2="31.9361" y2="122.196" gradientUnits="userSpaceOnUse">
<stop stop-color="#3592BA"/>
<stop offset="1" stop-color="#00A99D"/>
</linearGradient>
</defs>
</svg>
