<svg width="105" height="862" viewBox="0 0 105 862" fill="none" xmlns="http://www.w3.org/2000/svg">
<path d="M86.4297 130.866L115.403 80.6776L144.407 130.866H86.4297Z" fill="url(#paint0_linear_513_717)"/>
<path d="M0.980469 130.866L29.9537 80.6776L58.9657 130.866H0.980469Z" fill="url(#paint1_linear_513_717)"/>
<path d="M0.980469 147.043L29.9537 197.223L58.9657 147.043H0.980469Z" fill="url(#paint2_linear_513_717)"/>
<path d="M86.5146 -0.987286L115.488 49.1931L144.492 -0.987286H86.5146Z" fill="url(#paint3_linear_513_717)"/>
<path d="M0.980469 -0.987286L29.9614 49.1931L58.9657 -0.987286H0.980469Z" fill="url(#paint4_linear_513_717)"/>
<path d="M86.4453 278.896L115.419 228.708L144.423 278.896H86.4453Z" fill="url(#paint5_linear_513_717)"/>
<path d="M86.4453 147.043L115.419 197.223L144.423 147.043H86.4453Z" fill="url(#paint6_linear_513_717)"/>
<path d="M86.4453 426.918L115.419 376.738L144.423 426.918H86.4453Z" fill="url(#paint7_linear_513_717)"/>
<path d="M86.4453 295.066L115.419 345.254L144.423 295.066H86.4453Z" fill="url(#paint8_linear_513_717)"/>
<path d="M0.987305 278.896L29.9605 228.708L58.9648 278.896H0.987305Z" fill="url(#paint9_linear_513_717)"/>
<path d="M0.987305 295.066L29.9605 345.254L58.9648 295.066H0.987305Z" fill="url(#paint10_linear_513_717)"/>
<path d="M86.4453 574.948L115.419 524.76L144.423 574.948H86.4453Z" fill="url(#paint11_linear_513_717)"/>
<path d="M86.4453 443.095L115.419 493.275L144.423 443.095H86.4453Z" fill="url(#paint12_linear_513_717)"/>
<path d="M86.4453 722.97L115.419 672.79L144.423 722.97H86.4453Z" fill="url(#paint13_linear_513_717)"/>
<path d="M86.4453 591.118L115.419 641.306L144.423 591.118H86.4453Z" fill="url(#paint14_linear_513_717)"/>
<path d="M86.4453 871L115.419 820.812L144.423 871H86.4453Z" fill="url(#paint15_linear_513_717)"/>
<path d="M86.4453 739.148L115.419 789.336L144.423 739.148H86.4453Z" fill="url(#paint16_linear_513_717)"/>
<path d="M0.932617 426.918L29.9136 376.738L58.9179 426.918H0.932617Z" fill="url(#paint17_linear_513_717)"/>
<path d="M0.932617 574.948L29.9136 524.76L58.9179 574.948H0.932617Z" fill="url(#paint18_linear_513_717)"/>
<path d="M0.932617 443.095L29.9136 493.275L58.9179 443.095H0.932617Z" fill="url(#paint19_linear_513_717)"/>
<path d="M0.932617 722.97L29.9136 672.79L58.9179 722.97H0.932617Z" fill="url(#paint20_linear_513_717)"/>
<path d="M0.932617 591.118L29.9136 641.306L58.9179 591.118H0.932617Z" fill="url(#paint21_linear_513_717)"/>
<path d="M0.932617 871L29.9136 820.812L58.9179 871H0.932617Z" fill="url(#paint22_linear_513_717)"/>
<path d="M0.932617 739.148L29.9136 789.336L58.9179 739.148H0.932617Z" fill="url(#paint23_linear_513_717)"/>
<path d="M43.5488 204.881L72.5298 154.692L101.534 204.881H43.5488Z" fill="url(#paint24_linear_513_717)"/>
<path d="M43.5488 221.051L72.5298 271.239L101.534 221.051H43.5488Z" fill="url(#paint25_linear_513_717)"/>
<path d="M43.5488 352.903L72.5298 302.723L101.534 352.903H43.5488Z" fill="url(#paint26_linear_513_717)"/>
<path d="M43.5488 369.08L72.5298 419.26L101.534 369.08H43.5488Z" fill="url(#paint27_linear_513_717)"/>
<path d="M43.5488 500.933L72.5298 450.745L101.534 500.933H43.5488Z" fill="url(#paint28_linear_513_717)"/>
<path d="M43.5488 517.111L72.5298 567.291L101.534 517.111H43.5488Z" fill="url(#paint29_linear_513_717)"/>
<path d="M43.5488 648.955L72.5298 598.775L101.534 648.955H43.5488Z" fill="url(#paint30_linear_513_717)"/>
<path d="M43.5488 665.133L72.5298 715.321L101.534 665.133H43.5488Z" fill="url(#paint31_linear_513_717)"/>
<path d="M43.5488 796.985L72.5298 746.805L101.534 796.985H43.5488Z" fill="url(#paint32_linear_513_717)"/>
<path d="M43.5488 813.162L72.5298 863.342L101.534 813.162H43.5488Z" fill="url(#paint33_linear_513_717)"/>
<path d="M43.7432 56.8508L72.7241 6.67059L101.728 56.8508H43.7432Z" fill="url(#paint34_linear_513_717)"/>
<path d="M43.7041 73.0285L72.6773 123.209L101.689 73.0285H43.7041Z" fill="url(#paint35_linear_513_717)"/>
<defs>
<linearGradient id="paint0_linear_513_717" x1="115.418" y1="80.6776" x2="115.418" y2="130.866" gradientUnits="userSpaceOnUse">
<stop stop-color="#3592BA"/>
<stop offset="1" stop-color="#00A99D"/>
</linearGradient>
<linearGradient id="paint1_linear_513_717" x1="29.9731" y1="80.6776" x2="29.9731" y2="130.866" gradientUnits="userSpaceOnUse">
<stop stop-color="#3592BA"/>
<stop offset="1" stop-color="#00A99D"/>
</linearGradient>
<linearGradient id="paint2_linear_513_717" x1="29.9731" y1="147.043" x2="29.9731" y2="197.223" gradientUnits="userSpaceOnUse">
<stop stop-color="#3592BA"/>
<stop offset="1" stop-color="#00A99D"/>
</linearGradient>
<linearGradient id="paint3_linear_513_717" x1="115.503" y1="-0.987286" x2="115.503" y2="49.1931" gradientUnits="userSpaceOnUse">
<stop stop-color="#3592BA"/>
<stop offset="1" stop-color="#00A99D"/>
</linearGradient>
<linearGradient id="paint4_linear_513_717" x1="29.9731" y1="-0.987286" x2="29.9731" y2="49.1931" gradientUnits="userSpaceOnUse">
<stop stop-color="#3592BA"/>
<stop offset="1" stop-color="#00A99D"/>
</linearGradient>
<linearGradient id="paint5_linear_513_717" x1="115.434" y1="228.708" x2="115.434" y2="278.896" gradientUnits="userSpaceOnUse">
<stop stop-color="#3592BA"/>
<stop offset="1" stop-color="#00A99D"/>
</linearGradient>
<linearGradient id="paint6_linear_513_717" x1="115.434" y1="147.043" x2="115.434" y2="197.223" gradientUnits="userSpaceOnUse">
<stop stop-color="#3592BA"/>
<stop offset="1" stop-color="#00A99D"/>
</linearGradient>
<linearGradient id="paint7_linear_513_717" x1="115.434" y1="376.738" x2="115.434" y2="426.918" gradientUnits="userSpaceOnUse">
<stop stop-color="#3592BA"/>
<stop offset="1" stop-color="#00A99D"/>
</linearGradient>
<linearGradient id="paint8_linear_513_717" x1="115.434" y1="295.066" x2="115.434" y2="345.254" gradientUnits="userSpaceOnUse">
<stop stop-color="#3592BA"/>
<stop offset="1" stop-color="#00A99D"/>
</linearGradient>
<linearGradient id="paint9_linear_513_717" x1="29.976" y1="228.708" x2="29.976" y2="278.896" gradientUnits="userSpaceOnUse">
<stop stop-color="#3592BA"/>
<stop offset="1" stop-color="#00A99D"/>
</linearGradient>
<linearGradient id="paint10_linear_513_717" x1="29.976" y1="295.066" x2="29.976" y2="345.254" gradientUnits="userSpaceOnUse">
<stop stop-color="#3592BA"/>
<stop offset="1" stop-color="#00A99D"/>
</linearGradient>
<linearGradient id="paint11_linear_513_717" x1="115.434" y1="524.76" x2="115.434" y2="574.948" gradientUnits="userSpaceOnUse">
<stop stop-color="#3592BA"/>
<stop offset="1" stop-color="#00A99D"/>
</linearGradient>
<linearGradient id="paint12_linear_513_717" x1="115.434" y1="443.095" x2="115.434" y2="493.275" gradientUnits="userSpaceOnUse">
<stop stop-color="#3592BA"/>
<stop offset="1" stop-color="#00A99D"/>
</linearGradient>
<linearGradient id="paint13_linear_513_717" x1="115.434" y1="672.79" x2="115.434" y2="722.97" gradientUnits="userSpaceOnUse">
<stop stop-color="#3592BA"/>
<stop offset="1" stop-color="#00A99D"/>
</linearGradient>
<linearGradient id="paint14_linear_513_717" x1="115.434" y1="591.118" x2="115.434" y2="641.306" gradientUnits="userSpaceOnUse">
<stop stop-color="#3592BA"/>
<stop offset="1" stop-color="#00A99D"/>
</linearGradient>
<linearGradient id="paint15_linear_513_717" x1="115.434" y1="820.812" x2="115.434" y2="871" gradientUnits="userSpaceOnUse">
<stop stop-color="#3592BA"/>
<stop offset="1" stop-color="#00A99D"/>
</linearGradient>
<linearGradient id="paint16_linear_513_717" x1="115.434" y1="739.148" x2="115.434" y2="789.336" gradientUnits="userSpaceOnUse">
<stop stop-color="#3592BA"/>
<stop offset="1" stop-color="#00A99D"/>
</linearGradient>
<linearGradient id="paint17_linear_513_717" x1="29.9252" y1="376.738" x2="29.9252" y2="426.918" gradientUnits="userSpaceOnUse">
<stop stop-color="#3592BA"/>
<stop offset="1" stop-color="#00A99D"/>
</linearGradient>
<linearGradient id="paint18_linear_513_717" x1="29.9252" y1="524.76" x2="29.9252" y2="574.948" gradientUnits="userSpaceOnUse">
<stop stop-color="#3592BA"/>
<stop offset="1" stop-color="#00A99D"/>
</linearGradient>
<linearGradient id="paint19_linear_513_717" x1="29.9252" y1="443.095" x2="29.9252" y2="493.275" gradientUnits="userSpaceOnUse">
<stop stop-color="#3592BA"/>
<stop offset="1" stop-color="#00A99D"/>
</linearGradient>
<linearGradient id="paint20_linear_513_717" x1="29.9252" y1="672.79" x2="29.9252" y2="722.97" gradientUnits="userSpaceOnUse">
<stop stop-color="#3592BA"/>
<stop offset="1" stop-color="#00A99D"/>
</linearGradient>
<linearGradient id="paint21_linear_513_717" x1="29.9252" y1="591.118" x2="29.9252" y2="641.306" gradientUnits="userSpaceOnUse">
<stop stop-color="#3592BA"/>
<stop offset="1" stop-color="#00A99D"/>
</linearGradient>
<linearGradient id="paint22_linear_513_717" x1="29.9252" y1="820.812" x2="29.9252" y2="871" gradientUnits="userSpaceOnUse">
<stop stop-color="#3592BA"/>
<stop offset="1" stop-color="#00A99D"/>
</linearGradient>
<linearGradient id="paint23_linear_513_717" x1="29.9252" y1="739.148" x2="29.9252" y2="789.336" gradientUnits="userSpaceOnUse">
<stop stop-color="#3592BA"/>
<stop offset="1" stop-color="#00A99D"/>
</linearGradient>
<linearGradient id="paint24_linear_513_717" x1="72.5415" y1="154.692" x2="72.5415" y2="204.881" gradientUnits="userSpaceOnUse">
<stop stop-color="#3592BA"/>
<stop offset="1" stop-color="#00A99D"/>
</linearGradient>
<linearGradient id="paint25_linear_513_717" x1="72.5415" y1="221.051" x2="72.5415" y2="271.239" gradientUnits="userSpaceOnUse">
<stop stop-color="#3592BA"/>
<stop offset="1" stop-color="#00A99D"/>
</linearGradient>
<linearGradient id="paint26_linear_513_717" x1="72.5415" y1="302.723" x2="72.5415" y2="352.903" gradientUnits="userSpaceOnUse">
<stop stop-color="#3592BA"/>
<stop offset="1" stop-color="#00A99D"/>
</linearGradient>
<linearGradient id="paint27_linear_513_717" x1="72.5415" y1="369.08" x2="72.5415" y2="419.26" gradientUnits="userSpaceOnUse">
<stop stop-color="#3592BA"/>
<stop offset="1" stop-color="#00A99D"/>
</linearGradient>
<linearGradient id="paint28_linear_513_717" x1="72.5415" y1="450.745" x2="72.5415" y2="500.933" gradientUnits="userSpaceOnUse">
<stop stop-color="#3592BA"/>
<stop offset="1" stop-color="#00A99D"/>
</linearGradient>
<linearGradient id="paint29_linear_513_717" x1="72.5415" y1="517.111" x2="72.5415" y2="567.291" gradientUnits="userSpaceOnUse">
<stop stop-color="#3592BA"/>
<stop offset="1" stop-color="#00A99D"/>
</linearGradient>
<linearGradient id="paint30_linear_513_717" x1="72.5415" y1="598.775" x2="72.5415" y2="648.955" gradientUnits="userSpaceOnUse">
<stop stop-color="#3592BA"/>
<stop offset="1" stop-color="#00A99D"/>
</linearGradient>
<linearGradient id="paint31_linear_513_717" x1="72.5415" y1="665.133" x2="72.5415" y2="715.321" gradientUnits="userSpaceOnUse">
<stop stop-color="#3592BA"/>
<stop offset="1" stop-color="#00A99D"/>
</linearGradient>
<linearGradient id="paint32_linear_513_717" x1="72.5415" y1="746.805" x2="72.5415" y2="796.985" gradientUnits="userSpaceOnUse">
<stop stop-color="#3592BA"/>
<stop offset="1" stop-color="#00A99D"/>
</linearGradient>
<linearGradient id="paint33_linear_513_717" x1="72.5415" y1="813.162" x2="72.5415" y2="863.342" gradientUnits="userSpaceOnUse">
<stop stop-color="#3592BA"/>
<stop offset="1" stop-color="#00A99D"/>
</linearGradient>
<linearGradient id="paint34_linear_513_717" x1="72.7358" y1="6.67059" x2="72.7358" y2="56.8508" gradientUnits="userSpaceOnUse">
<stop stop-color="#3592BA"/>
<stop offset="1" stop-color="#00A99D"/>
</linearGradient>
<linearGradient id="paint35_linear_513_717" x1="72.6967" y1="73.0285" x2="72.6967" y2="123.209" gradientUnits="userSpaceOnUse">
<stop stop-color="#3592BA"/>
<stop offset="1" stop-color="#00A99D"/>
</linearGradient>
</defs>
</svg>
